<svg xmlns="http://www.w3.org/2000/svg" aria-hidden="true"><defs><symbol id="icon-search" viewBox="0 0 32 32"><path fill="none" stroke="#fff" stroke-linecap="round" stroke-linejoin="round" stroke-width="2.667" d="M14.667 25.333c5.891 0 10.667-4.776 10.667-10.667S20.558 3.999 14.667 3.999 4 8.775 4 14.666s4.776 10.667 10.667 10.667zM28 28.001l-5.8-5.8" style="stroke:var(--color1,#fff)"/></symbol><symbol id="icon-logo" viewBox="0 0 32 32"><path fill="none" stroke="#fff" style="stroke:var(--color1,#fff)" stroke-linejoin="round" stroke-linecap="round" stroke-width="2.667" d="M26.434 2.667H5.575a2.908 2.908 0 0 0-2.908 2.908v20.859a2.907 2.907 0 0 0 2.908 2.907v0h20.859a2.907 2.907 0 0 0 2.907-2.907v0V5.575a2.908 2.908 0 0 0-2.907-2.908v0zm-17.098 0v26.674M22.673 2.667v26.674M2.667 16.005h26.674M2.667 9.336h6.669M2.667 22.673h6.669m13.337 0h6.669M22.673 9.336h6.669"/></symbol><symbol id="icon-heart" viewBox="0 0 34 32"><path d="m17.239 31.73-2.413-2.413C5.862 21.387 0 16.043 0 9.492 0 4.148 4.137.01 9.482.01c2.931 0 5.861 1.379 7.758 3.62C19.136 1.389 22.067.01 24.998.01c5.344 0 9.482 4.137 9.482 9.482 0 6.551-5.861 11.895-14.826 19.825l-2.413 2.413z"/></symbol></defs></svg>