<svg xmlns="http://www.w3.org/2000/svg" aria-hidden="true"><defs><symbol id="icon-search" viewBox="0 0 32 32"><path fill="none" stroke="#fff" stroke-linecap="round" stroke-linejoin="round" stroke-width="2.667" d="M14.667 25.333c5.891 0 10.667-4.776 10.667-10.667S20.558 3.999 14.667 3.999 4 8.775 4 14.666s4.776 10.667 10.667 10.667zM28 28.001l-5.8-5.8" style="stroke:var(--color1, #fff)"/></symbol><symbol id="icon-logo" viewBox="0 0 32 32"><path fill="none" stroke="#fff" style="stroke: var(--color1, #fff)" stroke-linejoin="round" stroke-linecap="round" stroke-miterlimit="4" stroke-width="2.6667" d="M26.434 2.667h-20.859c-1.606 0-2.908 1.302-2.908 2.908v0 20.859c0 1.606 1.302 2.907 2.908 2.907v0h20.859c1.606 0 2.907-1.302 2.907-2.907v0-20.859c0-1.606-1.302-2.908-2.907-2.908v0zM9.336 2.667v26.674M22.673 2.667v26.674M2.667 16.005h26.674M2.667 9.336h6.669M2.667 22.673h6.669M22.673 22.673h6.669M22.673 9.336h6.669"></path></symbol><symbol id="icon-heart" viewBox="0 0 34 32">
<path d="M17.239 31.73l-2.413-2.413c-8.964-7.93-14.826-13.274-14.826-19.825 0-5.344 4.137-9.482 9.482-9.482 2.931 0 5.861 1.379 7.758 3.62 1.896-2.241 4.827-3.62 7.758-3.62 5.344 0 9.482 4.137 9.482 9.482 0 6.551-5.861 11.895-14.826 19.825l-2.413 2.413z"></path>
</symbol></defs></svg>